<svg version="1.1" id="Layer_1" xmlns="http://www.w3.org/2000/svg" xmlns:xlink="http://www.w3.org/1999/xlink" x="0px" y="0px"
	 width="100%" viewBox="0 0 1024 1024" enable-background="new 0 0 1024 1024" xml:space="preserve">
<path fill="#000000" opacity="1.000000" stroke="none" 
	d="
M271.287598,485.425903 
	C230.682373,494.007355 191.007095,504.483093 151.493011,517.325012 
	C150.225479,512.348206 151.416824,508.035156 151.842712,503.908173 
	C156.847519,455.409668 168.484283,408.657806 189.177216,364.327759 
	C200.324844,340.446411 212.823364,317.320007 226.794312,294.968140 
	C229.099945,291.279449 232.085815,289.279755 236.015045,287.988403 
	C268.430298,277.334839 301.115723,267.552216 333.742188,257.579346 
	C339.153992,255.925125 344.601379,254.377151 349.966156,252.582291 
	C354.550415,251.048538 358.946686,251.372086 362.907562,253.949295 
	C365.517120,255.647263 367.433044,254.987656 369.706268,253.558334 
	C387.053986,242.650681 404.318878,231.604111 421.842804,220.985733 
	C443.207794,208.039886 463.859497,193.902100 486.034119,182.305450 
	C504.029541,172.894440 522.226562,172.587234 540.020996,182.419693 
	C571.961609,200.068710 603.022583,219.209625 633.754272,238.882370 
	C636.237671,240.472061 638.733398,242.042496 641.619141,243.872879 
	C645.501343,236.907379 649.218811,230.444382 652.744202,223.878235 
	C674.098511,184.104370 695.918579,144.570175 716.119263,104.196350 
	C720.786194,94.868805 732.025146,89.581062 742.485596,94.901001 
	C752.457336,99.972351 756.916870,111.968727 751.727539,122.080048 
	C735.376465,153.939789 718.703369,185.634109 702.274475,217.454163 
	C693.563660,234.325348 685.109863,251.329178 676.509155,268.257446 
	C675.710693,269.829010 675.369324,271.168182 676.312317,272.915314 
	C685.885071,290.652527 693.716980,309.258698 703.420715,326.942322 
	C717.728271,353.015869 734.461243,377.451874 752.504028,401.038574 
	C756.552429,406.330933 760.502930,411.698975 763.131958,417.905823 
	C769.403137,432.711609 763.514404,447.250946 748.508789,452.979675 
	C744.919067,454.350159 745.143005,455.892334 746.582642,458.496307 
	C763.162720,488.486206 783.092590,515.826416 809.924561,537.557800 
	C814.142456,540.973877 812.335205,542.882568 809.464478,545.220093 
	C787.564270,563.052979 764.702271,579.366394 738.403687,590.272278 
	C723.600525,596.411011 708.464844,601.438110 692.677307,604.380127 
	C691.261841,604.643799 689.896606,605.176880 687.417542,605.905273 
	C697.285217,609.408264 706.415344,611.801575 715.011475,615.641296 
	C728.284485,621.570007 741.348145,627.868713 751.840332,638.279663 
	C768.002747,654.316895 769.594604,672.123352 756.722595,690.998901 
	C747.327820,704.775391 734.405762,714.691528 720.778381,723.808228 
	C706.162354,733.586487 690.231262,740.817566 673.970947,747.312927 
	C669.618103,749.051758 667.779480,751.356689 668.266418,756.209595 
	C671.445740,787.894165 676.414429,819.185669 687.042603,849.377014 
	C688.312317,852.983826 690.893066,853.206604 693.634155,853.451233 
	C702.915344,854.279724 712.204224,855.068420 721.505249,855.616394 
	C740.940674,856.761475 760.223511,859.401611 779.571594,861.394226 
	C782.435181,861.689209 785.568909,861.077148 788.643677,863.095276 
	C787.101624,864.820618 785.273438,864.859436 783.634460,865.132507 
	C750.172729,870.708374 716.705139,876.248840 683.240173,881.804993 
	C676.679504,882.894226 670.133728,884.077393 663.561218,885.088074 
	C661.945923,885.336426 659.933228,885.657227 658.650085,884.951050 
	C652.978333,881.829651 647.691895,883.811340 642.262573,885.508911 
	C616.251526,893.642029 589.497925,897.689575 562.451843,900.443542 
	C538.008301,902.932434 513.511230,903.033142 489.064667,902.103271 
	C453.388885,900.746216 418.131073,896.051086 384.156464,884.289185 
	C381.668060,883.427734 379.386902,882.984558 377.046783,884.614868 
	C373.953583,886.769958 370.526672,885.732971 367.348816,885.123169 
	C326.993073,877.379211 286.027283,873.435120 245.697250,865.544434 
	C242.829300,864.983276 239.690292,865.598267 237.040619,863.556274 
	C238.349686,861.283020 240.576126,861.936096 242.393677,861.748657 
	C264.714783,859.447144 287.040527,857.189575 309.370911,854.979614 
	C317.646179,854.160645 325.927795,853.354248 334.224792,852.832336 
	C337.418030,852.631409 338.957855,851.320984 339.859375,848.347351 
	C345.753235,828.906555 350.626099,809.225891 353.570129,789.117432 
	C355.206909,777.937927 356.559875,766.723206 357.111847,755.401184 
	C357.316620,751.201904 355.849487,749.537781 352.353088,748.037292 
	C333.796143,740.073608 315.794373,731.050781 299.253296,719.333923 
	C287.184265,710.784790 276.448700,700.936523 268.440704,688.347656 
	C257.566650,671.253174 259.139435,653.659058 273.372650,639.172974 
	C287.779022,624.510681 306.009827,616.252625 325.185852,610.134399 
	C352.245575,601.500916 380.126953,596.999573 408.408386,594.565063 
	C429.995605,592.706848 451.594574,591.695312 473.251495,591.673462 
	C474.384399,591.672302 475.517120,591.460754 477.985809,591.213196 
	C463.453918,575.501892 449.876526,560.161072 440.962250,541.607117 
	C442.527100,539.112000 444.954315,539.325989 446.933594,538.854370 
	C460.869507,535.533081 474.465240,531.065857 488.160645,526.925659 
	C491.071075,526.045776 492.556183,524.500427 493.302734,521.592651 
	C497.124634,506.706360 503.176086,492.717896 510.919037,479.473572 
	C512.354614,477.018005 512.435669,475.091248 511.087982,472.580505 
	C505.962097,463.030823 503.635376,452.652039 502.942108,441.928162 
	C502.748016,438.925629 501.527130,437.471222 498.897034,436.461090 
	C492.212738,433.893860 485.531647,431.297424 478.979614,428.416290 
	C476.092133,427.146576 473.825592,428.086761 471.429840,429.293793 
	C461.917145,434.086304 452.563446,439.163574 442.176208,442.037079 
	C428.950378,445.695953 415.591278,446.305115 402.085510,444.567810 
	C394.078979,443.537903 393.922546,443.295319 389.937317,450.460815 
	C383.165527,462.636444 374.166901,471.697571 359.327698,472.197906 
	C348.176331,472.573944 336.999695,472.523102 325.858459,471.546936 
	C319.538452,470.993256 319.438934,471.078552 319.267517,477.890839 
	C303.483673,480.369476 287.408844,481.761536 271.287598,485.425903 
M401.640656,418.697662 
	C409.628815,418.375000 417.738586,419.678284 427.041992,417.104980 
	C417.501953,413.980072 408.740936,413.414246 400.902618,409.630920 
	C428.250336,406.415192 455.532684,400.944458 483.221954,412.182068 
	C475.682007,399.588745 472.237793,387.713745 479.200714,375.181366 
	C483.110077,368.145050 489.737640,364.756744 497.677155,363.948761 
	C493.921844,367.436859 489.189087,369.607666 486.312500,374.116119 
	C481.687103,381.365631 480.879028,389.240448 481.122986,397.592865 
	C481.367981,405.980804 484.786743,411.592834 492.447968,415.309174 
	C510.349060,423.992706 528.952942,430.694794 548.055786,436.091797 
	C553.370972,437.593384 558.828491,438.461700 564.339050,437.248077 
	C575.547668,434.779510 584.993774,423.324585 586.567993,410.458374 
	C588.218323,396.969879 582.761597,384.969421 571.592712,379.930267 
	C545.840576,368.311523 519.136658,359.672821 490.942780,356.320587 
	C470.392029,353.877106 451.376282,347.596161 434.659058,334.993835 
	C424.377350,327.242920 413.488342,320.503357 400.911011,316.984985 
	C400.225189,316.793121 399.891693,316.188843 400.046021,315.333038 
	C400.452026,315.178833 400.910278,314.850006 401.357788,314.864014 
	C402.683441,314.905548 404.002747,315.114594 405.328278,315.201263 
	C420.849823,316.216431 435.248138,321.421814 449.415436,327.296631 
	C452.765564,328.685822 454.985931,328.198242 457.376678,325.785187 
	C462.942902,320.167084 467.401672,313.796844 471.017639,306.781830 
	C472.102905,304.676422 472.731476,302.145142 475.835876,300.341125 
	C475.313019,311.582703 474.823944,322.098602 474.296661,333.435547 
	C477.448944,330.859100 478.929993,328.457855 480.375458,326.035553 
	C491.072144,308.110291 491.641174,288.450623 490.256622,268.446533 
	C489.856140,262.660400 489.582764,256.865448 489.204651,250.263351 
	C491.856506,252.316910 491.800201,254.469452 492.390503,256.257843 
	C494.692322,263.231628 497.399719,269.966949 501.185608,276.330322 
	C511.633423,293.891083 530.059082,295.263580 544.567566,287.711426 
	C550.385071,284.683167 550.506714,284.099365 547.350708,278.201935 
	C546.407532,276.439392 545.433350,274.690582 544.565491,272.891022 
	C538.242065,259.778992 538.725891,246.176620 541.059143,231.824234 
	C541.945740,232.599487 542.309753,232.764450 542.400635,233.024780 
	C542.727783,233.962189 543.011597,234.921036 543.225037,235.890869 
	C545.078369,244.310242 548.606201,252.011368 553.712463,258.897034 
	C566.722656,276.441040 585.856384,284.155701 605.597107,290.839600 
	C607.326904,291.425293 608.456604,290.960297 609.269775,289.350067 
	C615.104736,277.795654 620.695007,266.106232 628.246765,255.554749 
	C626.151367,252.982269 623.523499,251.826248 621.119446,250.403870 
	C599.471924,237.596054 577.811340,224.810303 556.129822,212.060226 
	C549.955505,208.429352 543.567627,205.147202 537.507874,201.338837 
	C522.004761,191.595490 506.800598,192.935883 491.146881,201.274643 
	C469.794342,212.649170 449.653809,225.992996 429.091064,238.641327 
	C404.552094,253.735504 379.873627,268.634918 356.381073,285.372589 
	C352.734314,287.970764 350.208221,291.255096 348.172211,295.199280 
	C334.265778,322.138885 329.285065,350.805542 331.444702,380.851746 
	C331.676025,384.070496 332.009644,387.217438 334.618408,389.986664 
	C352.569183,409.041809 375.084778,417.355103 401.640656,418.697662 
M582.513733,665.258118 
	C562.048096,668.139954 541.491699,669.784912 520.816162,669.951599 
	C494.804382,670.161316 468.876099,668.857117 443.119537,665.195435 
	C423.829773,662.453064 404.674286,658.946533 386.538727,651.384521 
	C382.218445,649.583069 378.047058,647.480286 374.425629,644.472046 
	C369.490875,640.372925 369.470245,636.179382 374.313904,631.914856 
	C377.252075,629.327942 380.806610,627.876282 384.478729,626.726746 
	C402.503632,621.084595 421.108948,618.613342 439.807007,616.652649 
	C446.631897,615.936951 453.451965,615.175293 460.766510,614.381104 
	C459.273468,612.870667 458.053406,613.267273 456.974060,613.255493 
	C433.782135,613.002075 410.737823,614.581116 387.910706,618.861145 
	C374.811798,621.317078 361.677826,623.762268 349.551056,629.548645 
	C331.022980,638.389587 328.138214,650.645081 340.395752,667.282532 
	C342.307434,669.877319 344.338226,672.384338 346.764862,675.513428 
	C345.412109,675.282104 344.835693,675.357971 344.529846,675.105652 
	C336.251495,668.277039 328.632874,660.799500 323.706146,651.130615 
	C318.824829,641.550842 321.117920,633.457336 330.087708,627.299194 
	C335.679504,623.460327 341.569550,620.115112 347.796570,617.294861 
	C344.487549,617.823059 341.254059,618.510986 338.108063,619.482300 
	C314.606873,626.738647 306.458191,642.680420 314.720612,665.802490 
	C320.879944,683.039124 331.851501,696.897705 345.908936,708.426697 
	C347.718384,709.910828 349.547089,711.371521 351.366882,712.843018 
	C351.002258,713.231628 350.637634,713.620178 350.273010,714.008789 
	C324.700012,700.207947 300.387634,685.087585 289.837982,655.196411 
	C287.983948,658.510559 288.056763,661.886047 288.799866,665.309937 
	C291.318420,676.914246 297.409302,686.513245 305.600342,694.889038 
	C320.999237,710.635132 339.742401,721.535156 359.441315,730.659546 
	C407.591675,752.962463 458.700500,762.914734 511.430084,764.475098 
	C544.097290,765.441895 576.636292,763.072998 608.646240,755.644165 
	C620.485352,752.896545 632.241150,749.973511 643.485535,745.267212 
	C640.518433,745.716248 637.641296,746.543091 634.710693,747.074707 
	C607.040649,752.093018 579.318298,756.240051 551.134949,757.761902 
	C505.746216,760.212830 461.756958,754.834961 419.351685,738.102051 
	C418.204865,737.649475 416.330048,737.658142 416.223846,735.249756 
	C431.831696,738.567749 447.316895,740.544067 463.038605,740.353027 
	C457.646301,738.757324 452.173737,737.680115 446.733368,736.459595 
	C441.218536,735.222351 435.717285,733.914307 430.243744,732.506409 
	C424.764679,731.097046 419.271454,729.699951 413.887604,727.975464 
	C408.766876,726.335205 403.779541,724.278564 398.733582,722.405029 
	C398.922241,721.897278 399.110901,721.389465 399.299530,720.881714 
	C420.536041,725.637268 441.920532,729.106506 463.844360,728.484436 
	C443.777252,723.872192 424.151154,718.000000 405.246338,709.662170 
	C429.625061,715.019897 454.224304,717.422913 479.136078,717.290527 
	C447.957062,711.496521 417.732117,702.537537 386.876617,692.288513 
	C389.433380,690.403076 390.697723,691.283875 391.907715,691.594055 
	C411.654907,696.656616 431.841309,699.180847 452.077393,700.468201 
	C490.313232,702.900574 528.575073,703.276306 566.835083,699.836731 
	C589.107605,697.834473 611.011230,694.066223 632.635925,688.591064 
	C642.235901,686.160400 651.658447,683.028442 661.161499,680.214783 
	C604.879272,697.575256 513.991028,694.021118 498.606903,689.243652 
	C499.897156,687.784302 501.645142,687.990295 503.253265,687.989136 
	C526.430115,687.972534 549.418823,685.716248 572.405701,682.890564 
	C606.433411,678.707703 639.497559,670.814026 671.569214,658.756348 
	C681.898315,654.872986 691.773804,649.992432 700.583923,643.293335 
	C708.302185,637.424500 708.480652,630.927856 700.412170,625.601501 
	C679.053101,611.501343 656.308594,605.598450 631.450439,616.119324 
	C628.641113,617.308289 625.748840,618.443909 623.927917,621.085510 
	C625.477173,622.793457 627.262085,622.591064 628.857239,622.952881 
	C636.329834,624.647644 643.905029,626.163086 650.534790,630.223145 
	C658.131287,634.875488 658.147827,640.923157 650.686218,645.778320 
	C646.488892,648.509521 641.907654,650.543518 637.218079,652.304138 
	C619.814941,658.838135 601.664551,662.249023 582.513733,665.258118 
M510.280396,576.880798 
	C504.983643,579.927063 499.286591,582.169250 493.770081,584.430115 
	C493.948639,585.352722 493.918732,585.731873 494.087219,585.971558 
	C494.660431,586.786987 495.251526,587.601562 495.927795,588.331177 
	C517.935303,612.074707 543.726318,630.663269 572.715393,644.971130 
	C576.795166,646.984741 578.227234,646.011475 579.937927,641.984802 
	C589.357422,619.811768 605.401489,604.491821 628.304077,596.594604 
	C641.113403,592.177856 654.431702,589.733459 667.752930,587.949707 
	C704.355042,583.048706 737.444397,569.652222 767.478333,548.425354 
	C771.630249,545.491028 776.182129,542.939270 779.736755,538.426514 
	C749.055542,508.357666 728.763733,471.631897 711.556580,433.162659 
	C710.067627,433.619965 709.511536,433.645081 709.152161,433.923798 
	C705.730469,436.576935 702.274902,439.192535 698.954712,441.969208 
	C659.910583,474.622101 617.349792,500.737946 567.202393,512.645386 
	C563.451538,513.536011 561.617737,515.577087 560.201294,518.857605 
	C549.717102,543.138794 532.654175,561.831299 510.280396,576.880798 
M460.235382,795.417786 
	C448.026855,792.104980 436.578613,786.867920 425.019257,781.718384 
	C434.863129,783.539612 444.699707,784.734802 454.440521,786.477844 
	C458.989929,787.291992 460.668243,785.645447 461.374298,781.291199 
	C462.120483,776.689392 458.957214,776.869019 456.310669,776.406311 
	C440.431427,773.630310 424.546143,770.882202 408.847076,767.194214 
	C402.454773,765.692505 396.322906,763.105774 389.525085,762.083618 
	C389.085632,764.656311 388.607452,766.756897 388.381653,768.884277 
	C385.659058,794.534973 381.691589,819.960815 374.388977,844.756470 
	C373.394165,848.134338 374.203430,849.961548 377.245453,851.487244 
	C384.408264,855.079834 391.864807,857.917969 399.395905,860.591675 
	C413.232544,865.503845 427.548004,868.551575 441.884460,871.528564 
	C445.734314,872.328064 447.731140,871.308594 448.154358,866.994568 
	C448.834747,860.059082 449.951691,853.159973 451.068451,846.275391 
	C452.350555,838.371399 452.430511,838.410400 444.961456,836.228516 
	C437.062134,833.920776 429.476257,830.809021 421.259369,827.408569 
	C423.249603,826.212952 424.548523,826.614014 425.782990,826.818420 
	C432.994873,828.012390 440.207458,829.205078 447.404724,830.483032 
	C451.641693,831.235352 454.556244,830.596375 454.805786,825.348389 
	C454.954102,822.228760 455.887085,819.141663 456.521667,816.051147 
	C457.179626,812.846558 456.013824,811.197205 452.736115,810.352478 
	C436.579651,806.188782 421.138336,800.002441 405.866577,793.370789 
	C405.008636,792.998230 403.893829,792.813843 404.166626,790.877502 
	C431.379791,798.071228 458.932892,802.750916 487.207855,802.862732 
	C478.476959,800.451965 469.746033,798.041138 460.235382,795.417786 
M723.055420,411.576630 
	C726.719604,419.777771 730.354980,427.992004 734.068298,436.170868 
	C734.994934,438.211823 736.295044,440.008759 738.987366,439.526764 
	C743.484436,438.721680 747.214905,436.829315 748.923645,432.218170 
	C750.369751,428.315887 750.385071,425.219086 745.451782,423.640167 
	C742.826904,422.800079 740.331116,421.162170 738.144714,419.422333 
	C732.122681,414.630096 728.409180,408.243439 725.995056,401.014648 
	C732.390381,407.682922 736.754272,416.319794 746.600647,420.881805 
	C744.586121,415.407654 741.477417,412.095398 738.665588,408.640900 
	C726.365051,393.528503 714.049805,378.452667 703.449951,362.035248 
	C690.319580,341.698517 679.484192,320.147308 668.861694,298.461761 
	C667.971191,296.643829 667.615356,294.207794 665.101379,293.716156 
	C663.590637,294.318298 663.049316,295.602753 662.471130,296.762695 
	C656.010376,309.725555 649.630859,322.729156 643.120361,335.666870 
	C642.051636,337.790680 642.518494,339.464783 643.615662,341.260590 
	C650.339722,352.266876 658.327148,362.251740 667.763184,371.053711 
	C668.809692,372.029968 669.776978,373.340240 671.730530,373.154846 
	C674.420532,370.769775 675.841736,366.576630 680.717163,365.560822 
	C678.831665,370.759827 677.196411,375.340393 677.924316,380.507751 
	C679.444153,391.296631 685.024292,400.091766 690.989136,408.766418 
	C695.718445,415.644073 696.391541,415.775757 702.526733,410.149872 
	C707.262756,405.806946 711.879456,401.333923 716.825195,396.657898 
	C720.222290,401.281189 720.657471,406.428467 723.055420,411.576630 
M287.233887,400.493103 
	C289.798462,416.903137 294.454681,432.616608 302.965973,447.003357 
	C306.130219,452.351929 309.046906,452.981537 314.945099,449.875885 
	C311.427887,443.675781 307.689117,437.591309 304.445343,431.253479 
	C298.980286,420.575531 297.462891,415.545288 297.881195,411.602478 
	C299.433044,412.809357 299.944885,414.601410 300.665924,416.252716 
	C306.016235,428.505554 313.920746,438.883789 323.625427,448.008911 
	C326.480499,450.693420 329.390747,451.522430 332.606201,450.262085 
	C299.303131,391.590271 305.076965,334.313293 338.296173,276.800507 
	C330.192902,279.569824 323.240082,282.276886 316.088470,284.271240 
	C311.487518,285.554260 308.769562,288.228088 306.556274,292.231201 
	C294.807343,313.481262 286.847382,335.958984 285.555206,360.318451 
	C284.860992,373.405365 284.399811,386.613861 287.233887,400.493103 
M651.337708,412.086884 
	C643.743286,397.846680 636.148865,383.606506 627.901123,368.141449 
	C622.506348,378.910889 618.164307,388.050018 613.375732,396.948792 
	C610.793213,401.747894 614.255371,404.023438 616.627747,406.796448 
	C619.139587,409.732483 621.013245,406.811951 623.077759,405.807220 
	C624.324097,405.200714 625.277649,403.656189 627.236267,404.554016 
	C627.166748,405.167908 627.245361,405.858429 627.003601,406.408051 
	C619.090820,424.399506 625.284851,440.529846 633.586548,456.370300 
	C635.323181,459.683960 637.397217,460.744202 641.114990,458.390045 
	C648.573914,453.666931 656.076782,449.042206 663.243103,443.861908 
	C665.908325,441.935333 666.621094,440.460754 664.892456,437.404175 
	C660.303223,429.289062 656.058899,420.978973 651.337708,412.086884 
M608.973633,432.035645 
	C608.850647,430.213745 608.528442,428.378876 608.645874,426.572632 
	C608.896545,422.719391 607.460266,419.921295 603.981445,417.824982 
	C603.361877,418.643921 602.765076,419.223938 602.414856,419.926819 
	C596.634827,431.528503 590.916077,443.160889 585.098755,454.743744 
	C584.171631,456.589844 584.374390,458.180267 585.122681,459.963989 
	C587.820679,466.395355 590.741455,472.772400 590.660522,479.982391 
	C590.631653,482.555267 592.275513,483.235168 594.326050,482.551788 
	C604.405396,479.192780 613.700012,474.160492 623.865356,469.113495 
	C615.681824,457.883972 611.391663,445.786041 608.973633,432.035645 
M596.626404,310.654144 
	C587.948425,306.499176 579.115173,302.635254 570.986084,297.430206 
	C568.405518,295.777893 566.636780,296.448059 565.239014,298.874634 
	C563.059509,302.658051 560.255493,305.921356 556.976013,308.767853 
	C555.320496,310.204865 555.232422,311.665863 556.068604,313.621521 
	C560.610291,324.243683 566.110657,334.232086 574.744080,342.146332 
	C576.494141,343.750580 577.974854,345.982056 581.431702,346.058594 
	C586.712830,334.983795 592.063110,323.782562 597.365356,312.558716 
	C597.530396,312.209412 597.198975,311.625610 596.626404,310.654144 
M535.156860,537.779236 
	C536.562317,535.160706 540.110046,531.852600 533.197021,531.953003 
	C532.628662,531.961243 532.125610,530.794250 531.456482,530.408875 
	C523.874329,526.042297 516.265625,521.721680 507.930634,516.970642 
	C503.654907,534.049988 502.643188,550.863220 499.410675,567.566345 
	C514.170776,561.066223 525.002502,550.357727 535.156860,537.779236 
M538.761902,498.831360 
	C536.205627,497.629791 533.623047,496.480713 531.097412,495.217743 
	C518.679260,489.007843 518.684631,488.997131 513.268555,502.074554 
	C513.204956,502.228119 513.149170,502.387085 513.067078,502.530487 
	C511.938965,504.499359 512.526611,506.145050 514.274292,507.262146 
	C518.881958,510.207367 523.306030,513.501282 528.563843,515.285889 
	C528.989746,515.430420 529.507324,515.304932 530.071655,515.304932 
	C530.146790,514.265747 530.213379,513.344910 530.274475,512.500000 
	C532.104736,511.740143 533.902954,513.656860 535.819092,512.024658 
	C533.408325,510.033081 531.093811,508.121124 528.779358,506.209137 
	C531.713684,506.181793 534.078491,507.154358 536.471985,508.049927 
	C538.769470,508.909607 541.013672,510.333374 544.338806,509.418243 
	C541.223755,506.368500 537.368835,505.432465 535.173828,501.838287 
	C539.990417,501.154541 543.571228,505.552612 548.706360,503.960449 
	C545.658081,501.262543 542.241882,500.790680 538.761902,498.831360 
M628.843201,284.418152 
	C631.970825,277.527802 635.098450,270.637451 638.226013,263.747101 
	C618.516663,296.663910 602.296387,331.322693 585.368103,365.617493 
	C584.623352,367.126434 583.435059,368.818237 586.127747,371.204468 
	C600.408447,342.234833 614.485657,313.678040 628.843201,284.418152 
M487.918762,555.656372 
	C488.563110,552.967224 489.507874,550.291382 488.337769,546.927795 
	C481.691040,549.098206 474.724426,549.364197 468.487701,552.470459 
	C471.491791,559.626404 479.982330,570.276306 484.512451,572.641357 
	C485.613312,567.190735 486.694214,561.838928 487.918762,555.656372 
M216.393723,451.135925 
	C216.941940,454.266571 218.636566,456.627441 221.292389,458.304260 
	C226.532867,461.612946 233.358719,459.256134 234.551483,453.746979 
	C235.710739,448.392578 231.629272,442.325836 226.253479,441.412689 
	C220.723724,440.473450 217.124847,443.726318 216.393723,451.135925 
M248.932053,450.654755 
	C249.843491,451.037964 250.729385,451.505676 251.670639,451.790283 
	C256.693329,453.308807 261.442230,450.792389 262.535919,446.075134 
	C263.711273,441.005676 259.724915,435.342346 254.275070,434.339203 
	C249.345413,433.431793 244.966827,436.728516 244.585587,441.873932 
	C244.336411,445.236816 246.032028,447.910522 248.932053,450.654755 
M199.208862,466.885101 
	C203.734955,466.479645 206.208298,463.651794 206.480179,459.479156 
	C206.779434,454.886444 203.957565,451.654694 199.927521,449.861237 
	C196.526627,448.347748 192.993195,448.609680 190.411316,451.661804 
	C187.473618,455.134491 187.771805,459.052307 189.959930,462.744049 
	C191.798630,465.846222 194.850403,467.035736 199.208862,466.885101 
M362.828949,439.441620 
	C364.571808,438.457062 367.313385,439.359772 368.478333,435.878967 
	C359.514191,432.404022 351.102325,427.740082 341.945618,423.131500 
	C344.908112,436.306946 352.148285,441.938629 362.828949,439.441620 
M541.088928,350.226471 
	C547.483765,353.783569 554.476746,355.591766 562.748230,358.161957 
	C557.635193,351.389465 553.421753,345.808533 548.626160,339.456482 
	C546.200623,343.920258 541.583191,345.287537 541.088928,350.226471 
M674.997131,418.554321 
	C676.943848,421.954987 678.471558,425.633789 681.253662,428.453522 
	C685.858521,426.967438 683.954895,424.752747 682.343933,422.462494 
	C675.585388,412.854401 668.010498,403.726196 664.615295,392.137451 
	C663.934265,389.812958 661.811646,388.767517 659.632935,387.760742 
	C664.632690,397.810699 669.632446,407.860687 674.997131,418.554321 
M519.349243,451.297058 
	C520.061951,455.010468 519.694702,459.111969 523.509705,462.722229 
	C525.748108,457.509857 527.726318,452.903320 529.707214,448.290619 
	C526.435669,445.906708 523.341675,445.099152 519.334717,444.939209 
	C519.334717,446.914520 519.334717,448.684296 519.349243,451.297058 
M534.776001,473.306244 
	C537.394470,467.361023 541.055298,461.844391 542.946960,454.647858 
	C536.915710,459.707153 528.262329,477.712860 529.416748,482.630432 
	C531.929565,479.979614 532.816223,476.738464 534.776001,473.306244 
z"/>
<path fill="#000000" opacity="1.000000" stroke="none" 
	d="
M461.824097,517.719482 
	C462.988068,517.952820 463.856537,518.035950 464.371460,519.995911 
	C437.325745,525.397705 431.867554,546.766479 428.492279,570.046387 
	C425.208893,547.379883 420.340210,526.197266 394.074951,519.997314 
	C394.678192,517.877319 396.200317,518.032532 397.399353,517.730774 
	C407.004608,515.313843 414.001282,509.702179 418.571198,500.896362 
	C423.571014,491.262238 425.243164,480.789246 426.669708,470.233917 
	C427.109528,466.979401 427.509827,463.719543 428.414185,460.449341 
	C430.857300,465.152008 430.306488,470.368439 431.227081,475.279572 
	C432.858124,483.980560 434.847321,492.512848 438.930542,500.426361 
	C443.719177,509.706970 451.067871,515.688660 461.824097,517.719482 
z"/>
<path fill="#000000" opacity="1.000000" stroke="none" 
	d="
M720.481323,247.469147 
	C721.007019,243.801804 720.250122,240.424866 722.636841,237.190903 
	C723.190491,242.076462 723.716431,246.965363 724.304565,251.846756 
	C725.083069,258.307037 726.759033,264.528046 729.073364,270.618256 
	C732.649536,280.028809 739.757568,285.120819 749.442078,287.151123 
	C749.134399,287.605713 722.373108,327.147552 721.732666,328.093842 
	C717.882935,310.638580 714.376160,293.413666 694.145996,288.810181 
	C694.101257,287.281036 694.866943,287.008423 695.712036,286.853821 
	C706.340881,284.909332 712.444580,278.154602 715.902100,268.303040 
	C718.232666,261.662659 719.273682,254.789429 720.481323,247.469147 
z"/>
<path fill="#000000" opacity="1.000000" stroke="none" 
	d="
M338.800903,541.099243 
	C352.793732,537.624390 357.857819,527.152039 360.552490,514.843811 
	C361.794861,509.169128 362.792419,503.432861 362.854736,497.581665 
	C362.871552,496.002777 362.605011,494.287415 364.555939,492.359741 
	C365.551178,498.918518 366.376434,504.838501 367.362488,510.731537 
	C368.553772,517.850769 370.806091,524.539001 374.998596,530.571106 
	C379.217529,536.641235 385.344269,539.569275 392.668945,542.191589 
	C373.824554,547.549622 367.436432,562.033264 364.876373,579.282043 
	C362.479767,578.128540 363.051147,576.427185 362.804047,575.054260 
	C360.299835,561.139648 355.192444,549.134460 340.470245,543.934875 
	C339.684784,543.657471 336.685028,543.883301 338.800903,541.099243 
z"/>
<path fill="#000000" opacity="1.000000" stroke="none" 
	d="
M299.037231,581.101257 
	C297.029907,584.090149 296.973022,582.120361 296.701813,580.548279 
	C295.996613,576.460999 295.445465,572.336548 294.510986,568.301453 
	C291.895721,557.008423 285.672638,548.712036 274.392883,544.772827 
	C273.458099,544.446350 272.578308,543.954407 271.691681,543.502563 
	C271.408875,543.358459 271.186615,543.095520 271.066010,542.994873 
	C270.768036,541.874451 271.535309,541.604553 272.092194,541.477112 
	C287.174164,538.026428 292.417999,526.699036 294.708832,513.110413 
	C295.618744,507.713043 296.153931,502.252716 296.872314,496.822723 
	C297.064819,495.367828 297.054291,493.836884 298.799011,492.070465 
	C299.336456,496.854675 299.880096,501.111969 300.279785,505.382721 
	C300.949615,512.540039 302.343994,519.517517 305.243988,526.128418 
	C308.664551,533.926086 314.257843,539.187988 322.798523,540.943359 
	C323.283783,541.043091 323.770477,541.196289 324.215363,541.410217 
	C324.492340,541.543396 324.691833,541.837830 325.812775,542.900330 
	C306.140320,548.170410 301.048462,563.406311 299.037231,581.101257 
z"/>
<path fill="#000000" opacity="1.000000" stroke="none" 
	d="
M758.901611,353.941833 
	C755.495422,357.624573 753.945374,361.985626 751.874451,367.777496 
	C748.747864,359.484009 746.157593,352.612671 737.175964,348.695892 
	C746.972534,345.768311 749.607849,338.525909 752.108398,330.664917 
	C754.718323,337.907257 757.205994,344.896759 765.090454,348.234314 
	C762.767517,350.364105 760.956848,352.024200 758.901611,353.941833 
z"/>
<path fill="#000000" opacity="1.000000" stroke="none" 
	d="
M473.201050,465.628296 
	C473.599548,464.573486 473.869598,463.833649 474.574615,461.902161 
	C476.958649,469.377502 478.340118,476.282745 486.499817,479.624359 
	C480.114807,483.764587 476.626984,488.846069 474.529236,496.610321 
	C471.366608,489.385468 468.520111,483.563904 460.851013,480.103333 
	C468.326904,477.228271 471.065552,471.853729 473.201050,465.628296 
z"/>
<path fill="#000000" opacity="1.000000" stroke="none" 
	d="
M267.772888,569.405762 
	C269.431396,572.447388 272.131531,574.208801 274.489288,576.404663 
	C272.052216,578.312805 269.847992,580.038635 267.424011,581.936523 
	C265.211609,580.090332 262.980621,578.228699 260.414032,576.086914 
	C263.260498,574.128418 265.381836,571.686829 267.772888,569.405762 
z"/>
<path fill="#000000" opacity="1.000000" stroke="none" 
	d="
M334.153473,494.327271 
	C335.377594,495.849762 336.422852,497.116028 337.757294,498.732635 
	C336.274445,499.825317 334.816132,500.899902 332.948120,502.276428 
	C331.393738,501.959442 330.079773,500.230133 328.223022,498.607635 
	C330.145508,496.932861 330.728333,493.972412 334.153473,494.327271 
z"/>
<path fill="#000000" opacity="1.000000" stroke="none" 
	d="
M554.381104,430.100372 
	C547.298950,428.786804 540.764160,426.884186 534.575684,423.896698 
	C526.252014,419.878479 521.925842,413.022949 521.797852,404.008484 
	C521.654785,393.934021 524.813110,384.910858 533.372559,378.745667 
	C537.366089,375.869232 542.172241,376.044983 546.877075,376.635254 
	C555.680298,377.739716 563.735352,380.812744 571.283447,385.208557 
	C571.168823,385.624634 571.054199,386.040741 570.939575,386.456848 
	C565.229370,385.314484 559.542358,384.035522 553.803955,383.058807 
	C542.571594,381.146942 535.158325,385.353210 531.364197,395.573456 
	C527.744629,405.323578 531.220276,416.049744 539.777954,421.362366 
	C544.187927,424.100006 548.991882,425.980255 553.879028,427.679749 
	C554.942017,428.049408 557.353760,428.280243 554.381104,430.100372 
z"/>
<path fill="#000000" opacity="1.000000" stroke="none" 
	d="
M571.988281,419.935730 
	C570.012390,422.427826 568.140869,424.448273 563.711548,424.957977 
	C569.204346,417.615509 574.772461,411.438324 576.480286,402.167999 
	C578.837952,407.541626 577.300415,412.753784 571.988281,419.935730 
z"/>
<path fill="#000000" opacity="1.000000" stroke="none" 
	d="
M632.510742,550.208008 
	C633.544006,556.768433 638.092957,562.015259 639.902710,568.462219 
	C637.220764,570.947754 633.727478,571.017822 630.620544,572.019287 
	C629.097961,572.510010 628.286194,571.597168 627.733459,570.084534 
	C622.811279,556.615479 615.714050,544.121948 610.033691,530.982971 
	C608.094666,526.497864 609.076965,525.174561 613.392212,523.570801 
	C618.993713,521.488953 622.594971,521.973022 626.457458,527.125549 
	C631.510681,533.866455 637.772766,539.701233 643.473938,545.881409 
	C645.449280,544.829712 644.711426,543.339783 644.714355,542.161560 
	C644.734680,533.995728 644.836731,525.823364 644.539734,517.666748 
	C644.419434,514.363159 645.712585,512.970276 648.620117,511.923096 
	C659.128418,508.138397 658.953186,508.116608 663.103699,518.260681 
	C668.210388,530.741760 673.594727,543.109131 678.849854,555.529602 
	C679.486816,557.035034 680.629944,558.397217 680.256470,560.210449 
	C680.049805,560.466492 679.893677,560.868896 679.638550,560.946716 
	C669.439026,564.057556 669.498657,564.028076 665.420715,554.386230 
	C663.571777,550.014526 662.053528,545.447937 658.359375,540.214783 
	C658.359375,547.929749 658.017029,554.204041 658.480835,560.418091 
	C658.785400,564.498596 656.979492,565.479187 653.593140,566.193359 
	C648.692322,567.226990 645.163269,566.281494 642.251404,561.779907 
	C639.560486,557.619751 635.937500,554.062561 632.510742,550.208008 
z"/>
<path fill="#000000" opacity="1.000000" stroke="none" 
	d="
M677.696167,501.567993 
	C685.290283,498.470642 692.556946,495.589478 699.726501,492.484344 
	C702.792114,491.156616 704.886719,491.073792 705.366943,495.039795 
	C705.406616,495.367401 705.506165,495.691162 705.607056,496.007385 
	C708.731262,505.798035 708.731812,505.797638 698.793030,509.164642 
	C696.430725,509.964935 694.064453,510.753448 691.708435,511.571838 
	C689.115234,512.472656 687.345337,513.631775 688.580872,517.003601 
	C689.741943,520.172180 691.298035,521.069519 694.587402,519.960999 
	C698.351562,518.692444 702.305603,517.984802 706.183960,517.062073 
	C706.481995,516.991150 706.833801,517.146667 707.522217,517.252502 
	C709.062744,520.994141 710.672974,524.905090 712.342407,528.959839 
	C707.399170,532.228943 701.453796,531.853882 696.804626,534.863770 
	C696.851501,537.556091 697.792236,539.789307 699.352905,542.234802 
	C705.847656,541.102783 712.143616,539.060364 718.362122,536.825989 
	C721.750854,535.608398 723.587830,535.570007 724.736023,539.885437 
	C727.082886,548.705994 727.383484,548.551819 718.740723,551.296204 
	C711.135803,553.711182 703.559631,556.152527 695.656860,557.504272 
	C692.819885,557.989563 691.440613,557.298340 690.377625,554.602112 
	C684.644531,540.059204 678.653992,525.617737 672.949341,511.063965 
	C670.315735,504.345215 670.518982,504.265564 677.696167,501.567993 
z"/>
<path fill="#000000" opacity="1.000000" stroke="none" 
	d="
M559.734253,563.246704 
	C559.162109,562.395386 558.788391,561.843201 558.403320,561.299072 
	C552.279785,552.646301 552.467407,551.930359 562.805725,546.356201 
	C572.159302,560.353271 581.551514,574.408142 591.188171,588.828857 
	C589.372253,592.225098 585.778015,594.464783 582.850586,597.289368 
	C581.267639,598.816650 579.739136,597.369995 578.377991,596.491394 
	C573.052368,593.053772 567.500732,590.063843 561.639893,587.667358 
	C561.280884,587.959595 560.921814,588.251770 560.562744,588.544006 
	C564.144531,592.858215 567.740784,597.160461 571.299500,601.493652 
	C572.398071,602.831360 574.950562,603.831360 573.863220,605.858398 
	C572.319397,608.736206 570.667053,611.922424 567.715454,613.518127 
	C565.706360,614.604187 564.581909,612.109619 563.539185,610.774902 
	C555.744202,600.796814 548.043518,590.745117 540.317932,580.712891 
	C539.708130,579.920959 539.152466,579.087158 538.539062,578.298157 
	C532.886902,571.028625 533.077942,570.129517 540.292847,564.234497 
	C542.304810,562.590637 543.610291,563.701904 545.197693,564.536865 
	C550.505127,567.328552 555.807312,570.130371 561.133667,572.885498 
	C562.552795,573.619568 563.937195,574.615356 566.038940,574.346191 
	C565.358398,569.760193 561.802856,567.112427 559.734253,563.246704 
z"/>
<path fill="#000000" opacity="1.000000" stroke="none" 
	d="
M603.892639,547.121277 
	C611.542786,555.692444 618.177734,564.674133 626.307495,572.671814 
	C623.205444,575.419312 619.258118,575.812561 615.814148,577.253479 
	C613.923157,578.044739 613.328979,576.012512 612.622314,574.800476 
	C611.067139,572.133057 609.335144,570.928223 606.133240,572.585754 
	C603.287415,574.059021 601.176941,575.646790 602.667786,579.084045 
	C603.968933,582.084106 603.129272,583.684998 600.152771,584.789246 
	C598.008484,585.584839 596.045532,586.869080 593.459045,588.218567 
	C590.438721,580.914490 588.653748,573.530334 587.134583,566.164612 
	C585.223083,556.896851 584.133667,547.461853 582.527832,538.126892 
	C582.110474,535.701050 582.035278,533.659302 584.891418,533.134277 
	C587.729797,532.612488 590.661621,530.113586 593.378662,533.970764 
	C596.536987,538.454468 600.205200,542.579041 603.892639,547.121277 
M598.114197,555.940796 
	C597.509033,555.458496 597.062256,554.664307 595.785461,554.969360 
	C595.861206,558.490173 596.575439,561.842407 598.298767,565.106750 
	C602.607727,564.224365 603.381897,562.262451 600.756409,559.008911 
	C600.036499,558.116699 599.286621,557.248596 598.114197,555.940796 
z"/>
</svg>